<svg width="50" height="39" viewBox="0 0 80 79" fill="none" xmlns="http://www.w3.org/2000/svg">
<rect x="0.5" width="79" height="79" rx="39.5" fill="#BD0B09"/>
<g clip-path="url(#clip0_2704_6499)">
<path fill-rule="evenodd" clip-rule="evenodd" d="M36.6086 25.7612C34.8458 26.6795 33.4035 27.4566 33.4038 27.4882C33.4046 27.5698 37.6347 29.7121 37.7849 29.7069C37.8532 29.7046 38.3486 29.4765 38.8858 29.2001L39.8627 28.6976L40.9296 29.246L41.9964 29.7945L43.7436 29.0095C46.3761 27.8265 46.6496 27.6969 46.6067 27.6533C46.5498 27.5955 45.6056 27.0883 43.0438 25.7396C41.8057 25.0877 40.604 24.4486 40.3733 24.3193C40.1426 24.1899 39.9224 24.0859 39.8839 24.0879C39.8455 24.0899 38.3715 24.8429 36.6086 25.7612ZM28.8767 29.765L27.0416 30.713V34.8731C27.0416 37.1613 27.0657 39.0333 27.0952 39.0333C27.1247 39.0333 28.0276 38.6419 29.1016 38.1635L31.0544 37.2938V32.9087L32.0086 33.4286C32.744 33.8288 33.4797 34.2283 34.216 34.6269L35.469 35.3053L36.0266 35.0532C36.3763 34.8948 36.7253 34.7349 37.0735 34.5735C37.3427 34.4481 38.0033 34.1506 38.5416 33.9121C39.0799 33.6735 39.5782 33.4336 39.6488 33.3789C39.7427 33.3063 38.5982 32.6738 35.4157 31.0395C33.0167 29.8076 30.977 28.8036 30.8829 28.8084C30.7888 28.8132 29.886 29.2437 28.8767 29.765ZM46.9374 30.0312C45.6876 30.5955 44.6641 31.0797 44.663 31.1073C44.6619 31.1349 45.3431 31.5399 46.1768 32.0072C47.0105 32.4747 47.6927 32.8821 47.6927 32.9128C47.6927 32.9434 46.9549 33.3009 46.0534 33.7073C45.1516 34.1136 42.8725 35.1429 40.9884 35.9946L34.6757 38.8481C33.0877 39.5659 31.6563 40.213 31.4948 40.2861C28.2513 41.7544 27.3598 42.1619 27.2373 42.2318C27.1142 42.3022 27.0863 42.7113 27.0644 44.7644L27.0383 47.2131L28.6793 48.0493L30.3203 48.8854L32.5959 47.8585C33.8474 47.2937 34.8714 46.802 34.8714 46.7658C34.8714 46.7297 34.6401 46.579 34.3576 46.4308C34.0749 46.2826 33.4914 45.9545 33.0607 45.7016C32.6301 45.4486 32.2008 45.2166 32.1065 45.1858C32.0123 45.1551 31.9365 45.1014 31.938 45.0664C31.9396 45.0315 32.9417 44.5555 34.1647 44.0086C36.5401 42.9465 38.358 42.128 42.2608 40.363C44.006 39.574 45.7513 38.7855 47.497 37.9974C49.0311 37.3049 50.8148 36.4962 51.4608 36.2002L52.6353 35.662L52.6614 33.1854L52.6876 30.7089L51.0232 29.8545C50.1077 29.3847 49.3252 29.0015 49.2842 29.0029C49.2432 29.0041 48.1872 29.4669 46.9374 30.0312ZM52.1894 38.966C51.9441 39.0858 51.4596 39.3101 51.1128 39.4644C50.7659 39.6187 50.1077 39.9157 49.6502 40.1245L48.8182 40.5039L48.7993 42.6782C48.7888 43.874 48.7447 44.8471 48.7014 44.8408C48.6029 44.8261 47.0437 44.0265 45.4764 43.1866C44.3452 42.5805 44.2741 42.5565 44.0083 42.6881C43.8546 42.7642 42.9361 43.1762 41.9672 43.6037C40.9982 44.0311 40.1739 44.4087 40.1351 44.4429C40.0964 44.4771 42.0465 45.534 44.4688 46.7919L48.8728 49.0788L50.7541 48.1056C51.7887 47.5704 52.6685 47.0822 52.709 47.0208C52.8002 46.8827 52.7924 38.7292 52.7011 38.7402C52.6649 38.7446 52.4346 38.8462 52.1894 38.966ZM41.7714 48.5362C41.4451 48.6765 41.1189 48.817 40.7927 48.9577C39.8078 49.3838 40.0008 49.3979 38.8291 48.8146C38.0486 48.4261 37.7122 48.3062 37.5662 48.3644C37.4567 48.4081 36.5141 48.8321 35.4714 49.3068C34.4287 49.7815 33.5394 50.1698 33.4952 50.1698C33.0577 50.1698 33.785 50.6044 36.5914 52.02L39.8827 53.6801L41.2675 52.9964C42.0291 52.6204 43.5653 51.8674 44.6814 51.3231C45.7973 50.7787 46.6966 50.3192 46.6797 50.3019C46.6628 50.2846 45.7277 49.8045 44.6017 49.2349L42.5544 48.1994L41.7714 48.5362Z" fill="white"/>
</g>
<defs>
<clipPath id="clip0_2704_6499">
<rect width="25.7619" height="29.625" fill="white" transform="translate(27.0391 24.0703)"/>
</clipPath>
</defs>
</svg>
