<svg width="50" height="49" viewBox="0 0 80 79" fill="none" xmlns="http://www.w3.org/2000/svg">
<rect x="0.625" width="79" height="79" rx="39.5" fill="#BD0B09"/>
<path d="M32.097 38.1584C32.097 37.4746 32.6587 36.9129 33.3413 36.9129H35.44C36.1238 36.9129 36.7092 37.4746 36.7092 38.1833V46.0981C36.9533 46.0246 37.246 45.9512 37.5885 45.8777C38.0518 45.7556 38.3943 45.3409 38.3943 44.8514V35.0311C38.3943 34.3474 38.956 33.7608 39.6634 33.7608H41.7621C42.4459 33.7608 43.0313 34.3225 43.0313 35.0311V44.144C43.0313 44.144 43.5444 43.9236 44.0563 43.7043C44.4474 43.5337 44.6915 43.1675 44.6915 42.7267V31.8564C44.6915 31.1727 45.2532 30.5861 45.937 30.5861H48.0357C48.7194 30.5861 49.2811 31.1478 49.2811 31.8564V40.8223C51.0871 39.5034 52.9429 37.9155 54.4076 36.0099C54.8472 35.4482 54.9693 34.7147 54.7251 34.0309C52.0399 26.3117 43.5954 22.2067 35.882 24.8944C28.1687 27.582 24.0685 36.0336 26.7526 43.7541C27.0453 44.6334 27.4363 45.4641 27.8997 46.2699C28.2658 46.9051 28.9496 47.2713 29.6819 47.1978C30.073 47.1729 30.5612 47.1243 31.1703 47.0509C31.7072 47.0023 32.0982 46.5377 32.0982 45.9997L32.097 38.1584Z" fill="white"/>
<path d="M32.0478 50.8622C38.6626 55.6746 47.9141 54.2087 52.7218 47.5891C54.5527 45.0484 55.5528 41.9946 55.5528 38.8685C55.5528 38.526 55.5279 38.1848 55.5042 37.8423C50.1112 45.9277 40.1273 49.7139 32.0478 50.8622Z" fill="white"/>
</svg>
