<svg width="50" height="49" viewBox="0 0 80 79" fill="none" xmlns="http://www.w3.org/2000/svg">
<rect x="0.875" width="79" height="79" rx="39.5" fill="#BD0B09"/>
<path d="M58.3097 28.1958C56.9701 28.7912 55.5273 29.1922 54.0146 29.3744C55.5607 28.448 56.7423 26.9839 57.3043 25.2373C55.8584 26.0939 54.2576 26.7166 52.5536 27.0507C51.1928 25.5957 49.2457 24.6875 47.0982 24.6875C42.2685 24.6875 38.7207 29.1922 39.8112 33.8699C33.5994 33.5571 28.0863 30.5803 24.3987 26.0574C22.4395 29.4169 23.3842 33.8153 26.7133 36.0418C25.4892 36.0023 24.338 35.6651 23.3295 35.1062C23.2475 38.569 25.7322 41.81 29.3287 42.533C28.2777 42.8185 27.1234 42.8853 25.9509 42.6605C26.9017 45.6312 29.6689 47.7909 32.9372 47.8517C29.7873 50.3182 25.8294 51.4208 21.8594 50.953C25.1703 53.0762 29.0978 54.3125 33.32 54.3125C47.2075 54.3125 55.0504 42.5846 54.5766 32.0657C56.0407 31.0147 57.3073 29.6964 58.3097 28.1958Z" fill="white"/>
</svg>
